<svg width="20" height="11" viewBox="0 0 20 11" fill="none" xmlns="http://www.w3.org/2000/svg">
<path d="M5.63985 9.103C5.79585 9.103 5.91718 9.142 6.00385 9.22C6.09051 9.298 6.13385 9.40633 6.13385 9.545C6.13385 9.69233 6.09051 9.805 6.00385 9.883C5.92585 9.961 5.80451 10 5.63985 10H1.33685C1.17218 10 1.04651 9.961 0.959848 9.883C0.881848 9.805 0.842848 9.69233 0.842848 9.545C0.842848 9.40633 0.886181 9.298 0.972848 9.22C1.05951 9.142 1.18085 9.103 1.33685 9.103H2.94885V2.135L1.53185 3.058C1.46251 3.10133 1.39318 3.123 1.32385 3.123C1.20251 3.123 1.09418 3.06667 0.998848 2.954C0.912181 2.84133 0.868848 2.72 0.868848 2.59C0.868848 2.408 0.938181 2.278 1.07685 2.2L3.05285 0.912999C3.20018 0.817666 3.35185 0.77 3.50785 0.77C3.65518 0.77 3.77651 0.817666 3.87185 0.912999C3.96718 1.00833 4.01485 1.14267 4.01485 1.316V9.103H5.63985ZM8.56477 6.971C8.40877 6.971 8.28744 6.932 8.20077 6.854C8.12277 6.776 8.08377 6.672 8.08377 6.542C8.08377 6.412 8.12277 6.308 8.20077 6.23C8.28744 6.14333 8.40877 6.1 8.56477 6.1H11.4248C11.5894 6.1 11.7108 6.14333 11.7888 6.23C11.8754 6.308 11.9188 6.412 11.9188 6.542C11.9188 6.672 11.8754 6.776 11.7888 6.854C11.7108 6.932 11.5894 6.971 11.4248 6.971H8.56477ZM18.0832 5.294C18.6379 5.45 19.0582 5.71867 19.3442 6.1C19.6389 6.48133 19.7862 6.95367 19.7862 7.517C19.7862 8.31433 19.5176 8.94267 18.9802 9.402C18.4429 9.86133 17.7106 10.091 16.7832 10.091C16.2199 10.091 15.6782 9.99567 15.1582 9.805C14.6469 9.61433 14.2136 9.35433 13.8582 9.025C13.7196 8.895 13.6502 8.74767 13.6502 8.583C13.6502 8.453 13.6849 8.34467 13.7542 8.258C13.8236 8.17133 13.9059 8.128 14.0012 8.128C14.1226 8.128 14.2439 8.17567 14.3652 8.271C14.7639 8.59167 15.1539 8.82567 15.5352 8.973C15.9166 9.12033 16.3282 9.194 16.7702 9.194C17.4116 9.194 17.8969 9.04667 18.2262 8.752C18.5642 8.45733 18.7332 8.03267 18.7332 7.478C18.7332 6.36 18.0312 5.801 16.6272 5.801H15.9382C15.7996 5.801 15.6869 5.75767 15.6002 5.671C15.5222 5.57567 15.4832 5.46733 15.4832 5.346C15.4832 5.22467 15.5222 5.12067 15.6002 5.034C15.6869 4.94733 15.7996 4.904 15.9382 4.904H16.4192C17.0952 4.904 17.6152 4.75667 17.9792 4.462C18.3432 4.15867 18.5252 3.72533 18.5252 3.162C18.5252 2.668 18.3779 2.291 18.0832 2.031C17.7886 1.76233 17.3726 1.628 16.8352 1.628C16.4279 1.628 16.0336 1.706 15.6522 1.862C15.2709 2.00933 14.8896 2.239 14.5082 2.551C14.3869 2.64633 14.2656 2.694 14.1442 2.694C14.0489 2.694 13.9666 2.65067 13.8972 2.564C13.8279 2.47733 13.7932 2.369 13.7932 2.239C13.7932 2.07433 13.8626 1.927 14.0012 1.797C14.3566 1.46767 14.7856 1.20767 15.2882 1.017C15.7996 0.826333 16.3239 0.730999 16.8612 0.730999C17.6932 0.730999 18.3519 0.943333 18.8372 1.368C19.3312 1.784 19.5782 2.34733 19.5782 3.058C19.5782 3.58667 19.4439 4.05033 19.1752 4.449C18.9152 4.839 18.5512 5.12067 18.0832 5.294Z" fill="black"/>
</svg>
