<svg width="6" height="10" viewBox="0 0 6 10" fill="none" xmlns="http://www.w3.org/2000/svg">
<path d="M5.49854 9.103C5.65454 9.103 5.77587 9.142 5.86254 9.22C5.94921 9.298 5.99254 9.40633 5.99254 9.545C5.99254 9.69233 5.94921 9.805 5.86254 9.883C5.78454 9.961 5.66321 10 5.49854 10H1.19554C1.03087 10 0.905206 9.961 0.818539 9.883C0.740539 9.805 0.701539 9.69233 0.701539 9.545C0.701539 9.40633 0.744872 9.298 0.831539 9.22C0.918206 9.142 1.03954 9.103 1.19554 9.103H2.80754V2.135L1.39054 3.058C1.32121 3.10133 1.25187 3.123 1.18254 3.123C1.06121 3.123 0.952873 3.06667 0.857539 2.954C0.770872 2.84133 0.727539 2.72 0.727539 2.59C0.727539 2.408 0.796872 2.278 0.935539 2.2L2.91154 0.912999C3.05887 0.817666 3.21054 0.77 3.36654 0.77C3.51387 0.77 3.63521 0.817666 3.73054 0.912999C3.82587 1.00833 3.87354 1.14267 3.87354 1.316V9.103H5.49854Z" fill="black"/>
</svg>
