<svg width="20" height="18" viewBox="0 0 20 18" fill="none" xmlns="http://www.w3.org/2000/svg">
<path d="M20 17.9999C18.89 17.9999 18.27 17.6299 17.82 17.3599C17.45 17.1399 17.22 16.9999 16.67 16.9999C16.11 16.9999 15.89 17.1299 15.52 17.3599C15.06 17.6299 14.45 17.9999 13.34 17.9999C12.23 17.9999 11.61 17.6299 11.16 17.3599C10.79 17.1399 10.56 16.9999 10.01 16.9999C9.45 16.9999 9.23 17.1299 8.86 17.3599C8.4 17.6299 7.78 17.9999 6.67 17.9999C5.56 17.9999 4.94 17.6299 4.49 17.3599C4.12 17.1299 3.89 16.9999 3.34 16.9999C2.79 16.9999 2.56 17.1299 2.19 17.3599C1.73 17.6299 1.11 17.9999 0 17.9999V15.9999C0.56 15.9999 0.78 15.8699 1.15 15.6399C1.61 15.3699 2.23 14.9999 3.34 14.9999C4.45 14.9999 5.07 15.3699 5.52 15.6399C5.89 15.8699 6.11 15.9999 6.67 15.9999C7.23 15.9999 7.45 15.8699 7.82 15.6399C8.28 15.3699 8.9 14.9999 10.01 14.9999C11.12 14.9999 11.74 15.3699 12.19 15.6399C12.56 15.8599 12.79 15.9999 13.34 15.9999C13.89 15.9999 14.12 15.8699 14.49 15.6399C14.94 15.3699 15.56 14.9999 16.67 14.9999C17.78 14.9999 18.4 15.3699 18.85 15.6399C19.22 15.8699 19.44 15.9999 20 15.9999V17.9999ZM20 13.4999C18.89 13.4999 18.27 13.1299 17.82 12.8599C17.45 12.6399 17.22 12.4999 16.67 12.4999C16.11 12.4999 15.89 12.6299 15.52 12.8599C15.07 13.1299 14.45 13.4999 13.34 13.4999C12.23 13.4999 11.61 13.1299 11.16 12.8599C10.79 12.6399 10.56 12.4999 10.01 12.4999C9.45 12.4999 9.23 12.6299 8.86 12.8599C8.41 13.1299 7.79 13.4999 6.68 13.4999C5.57 13.4999 4.95 13.1299 4.5 12.8599C4.13 12.6399 3.9 12.4999 3.35 12.4999C2.8 12.4999 2.57 12.6299 2.2 12.8599C1.73 13.1299 1.11 13.4999 0 13.4999V11.4999C0.56 11.4999 0.78 11.3699 1.15 11.1399C1.6 10.8699 2.22 10.4999 3.33 10.4999C4.44 10.4999 5.06 10.8699 5.51 11.1399C5.88 11.3599 6.11 11.4999 6.66 11.4999C7.22 11.4999 7.44 11.3699 7.81 11.1399C8.26 10.8699 8.88 10.4999 9.99 10.4999C11.1 10.4999 11.72 10.8699 12.17 11.1399C12.54 11.3599 12.77 11.4999 13.32 11.4999C13.87 11.4999 14.1 11.3699 14.47 11.1399C14.92 10.8699 15.54 10.4999 16.65 10.4999C17.76 10.4999 18.38 10.8699 18.83 11.1399C19.2 11.3599 19.43 11.4999 19.98 11.4999V13.4999H20ZM6.67 8.99992C7.23 8.99992 7.45 8.86992 7.82 8.63992C8.28 8.36992 8.9 7.99992 10.01 7.99992C11.12 7.99992 11.74 8.36992 12.19 8.63992C12.56 8.85992 12.79 8.99992 13.34 8.99992C13.89 8.99992 14.12 8.86992 14.49 8.63992C14.61 8.56992 14.75 8.48991 14.9 8.40991L8.48 1.99991C6.93 0.449915 5.5 -0.0100853 3 -8.53049e-05V2.49991C4.82 2.48991 5.89 2.88991 7 3.99991L8 4.99991L4.75 8.24992C5.06 8.36992 5.31 8.51992 5.52 8.63992C5.89 8.86992 6.11 8.99992 6.67 8.99992Z" fill="black"/>
</svg>
