<svg width="24" height="20" viewBox="0 0 24 20" fill="none" xmlns="http://www.w3.org/2000/svg">
<path d="M12 14.8C11.6863 14.8014 11.3759 14.8646 11.0867 14.986C10.7974 15.1074 10.5349 15.2846 10.3141 15.5075C10.0934 15.7303 9.91869 15.9945 9.80006 16.2849C9.68143 16.5753 9.62119 16.8863 9.62277 17.2C9.62277 18.5248 10.6872 19.6 12 19.6C12.3136 19.5984 12.6238 19.5351 12.9129 19.4136C13.202 19.2922 13.4644 19.1149 13.685 18.8921C13.9057 18.6692 14.0802 18.4051 14.1988 18.1147C14.3173 17.8244 14.3775 17.5136 14.376 17.2C14.376 15.874 13.3128 14.8 12 14.8ZM6.95997 12.1096L8.63997 13.8064C9.07905 13.3611 9.60225 13.0075 10.1792 12.7662C10.7561 12.5248 11.3752 12.4005 12.0006 12.4005C12.6259 12.4005 13.2451 12.5248 13.822 12.7662C14.3989 13.0075 14.9221 13.3611 15.3612 13.8064L17.04 12.1096C16.3815 11.4417 15.5969 10.9114 14.7316 10.5494C13.8664 10.1874 12.9379 10.001 12 10.001C11.0621 10.001 10.1335 10.1874 9.26831 10.5494C8.40309 10.9114 7.61844 11.4417 6.95997 12.1096ZM3.59997 8.71358L5.27997 10.4104C6.15791 9.52005 7.20403 8.81308 8.35755 8.33054C9.51107 7.84799 10.749 7.5995 11.9994 7.5995C13.2498 7.5995 14.4877 7.84799 15.6412 8.33054C16.7947 8.81308 17.8408 9.52005 18.7188 10.4104L20.4 8.71358C19.3024 7.60059 17.9947 6.71681 16.5526 6.11359C15.1106 5.51037 13.5631 5.19973 12 5.19973C10.4369 5.19973 8.88933 5.51037 7.4473 6.11359C6.00527 6.71681 4.6975 7.60059 3.59997 8.71358ZM0.23877 5.31998L1.91877 7.01678C3.23581 5.68098 4.80521 4.62027 6.53575 3.89627C8.2663 3.17228 10.1235 2.79945 11.9994 2.79945C13.8753 2.79945 15.7324 3.17228 17.463 3.89627C19.1935 4.62027 20.7629 5.68098 22.08 7.01678L23.76 5.31998C22.2234 3.76156 20.3925 2.52406 18.3735 1.6794C16.3546 0.834747 14.1879 0.39978 11.9994 0.39978C9.81085 0.39978 7.64416 0.834747 5.6252 1.6794C3.60625 2.52406 1.7753 3.76156 0.23877 5.31998Z" fill="black"/>
</svg>
